<svg id='Content_Save_24' width='24' height='24' viewBox='0 0 24 24'
    xmlns='http://www.w3.org/2000/svg' xmlns:xlink='http://www.w3.org/1999/xlink'>
    <rect width='24' height='24' stroke='none' fill='#000000' opacity='0' />


    <g transform="matrix(1.43 0 0 1.43 12 12)">
        <g style="">
            <g transform="matrix(1 0 0 1 0.02 0.02)">
                <path
                    style="stroke: #fff; stroke-width: 1.048951048951049; stroke-dasharray: none; stroke-linecap: round; stroke-dashoffset: 0; stroke-linejoin: round; stroke-miterlimit: 4; fill: none; fill-rule: nonzero; opacity: 1;"
                    transform=" translate(-7, -7)"
                    d="M 13.5 12.5 C 13.5 13.052284749830793 13.052284749830793 13.5 12.5 13.5 L 1.5 13.5 C 0.9477152501692065 13.5 0.5 13.052284749830793 0.5 12.5 L 0.5 3.5 L 3.5 0.5 L 12.5 0.5 C 13.052284749830793 0.5 13.5 0.9477152501692063 13.5 1.4999999999999998 Z"
                    stroke-linecap="round" />
            </g>
            <g transform="matrix(1 0 0 1 0.02 4.02)">
                <rect
                    style="stroke: #fff; stroke-width: 1.048951048951049; stroke-dasharray: none; stroke-linecap: round; stroke-dashoffset: 0; stroke-linejoin: round; stroke-miterlimit: 4; fill: none; fill-rule: nonzero; opacity: 1;"
                    x="-3.5" y="-2.5" rx="0" ry="0" width="7" height="5" />
            </g>
            <g transform="matrix(1 0 0 1 0.52 -4.48)">
                <rect
                    style="stroke: #fff; stroke-width: 1.048951048951049; stroke-dasharray: none; stroke-linecap: round; stroke-dashoffset: 0; stroke-linejoin: round; stroke-miterlimit: 4; fill: none; fill-rule: nonzero; opacity: 1;"
                    x="-3" y="-2" rx="0" ry="0" width="6" height="4" />
            </g>
        </g>
    </g>
</svg>